<mxfile host="app.diagrams.net" modified="2024-07-31T13:24:07.279Z" agent="Mozilla/5.0 (Windows NT 10.0; Win64; x64) AppleWebKit/537.36 (KHTML, like Gecko) Chrome/123.0.0.0 Safari/537.36 OPR/109.0.0.0" version="24.5.2" etag="9RHL547YGJhs8OY04Cjy" type="github">
  <diagram name="PÃ¡gina-1" id="m51AZlesysTWS4gtmlsb">
    <mxGraphModel>
      <root>
        <mxCell id="0" />
        <mxCell id="1" parent="0" />
      </root>
    </mxGraphModel>
  </diagram>
</mxfile>
